<svg width="24" height="24" viewBox="0 0 24 24" fill="none" xmlns="http://www.w3.org/2000/svg">
<path d="M8.8014 9.9424C9.2351 9.53163 9.5141 8.98406 9.5915 8.39176L9.9944 5.30931L12.725 6.79516C13.2497 7.08067 13.8567 7.17681 14.4439 7.06741L17.5 6.49808L16.9307 9.55417C16.8213 10.1414 16.9174 10.7483 17.2029 11.273L18.6888 14.0036L15.6063 14.4065C15.014 14.4839 14.4665 14.7629 14.0557 15.1966L11.9179 17.4535L10.5822 14.6465C10.3255 14.1071 9.891 13.6725 9.3516 13.4159L6.5445 12.0801L8.8014 9.9424ZM8.7762 15.5058L10.9889 20.1559C11.1313 20.4552 11.4893 20.5823 11.7885 20.4399C11.8552 20.4082 11.9155 20.3644 11.9663 20.3107L15.5077 16.572C15.6025 16.4719 15.7289 16.4075 15.8656 16.3897L20.9718 15.7222C21.3004 15.6792 21.532 15.3781 21.489 15.0495C21.4794 14.9762 21.4564 14.9054 21.4211 14.8405L18.9597 10.3171C18.8938 10.196 18.8716 10.0559 18.8969 9.92046L19.84 4.85784C19.9007 4.53207 19.6858 4.21879 19.36 4.1581C19.2874 4.14457 19.2129 4.14457 19.1403 4.1581L14.0776 5.10124C13.9421 5.12648 13.802 5.1043 13.681 5.03841L9.1576 2.577C8.8665 2.41861 8.5021 2.52617 8.3438 2.81724C8.3084 2.88214 8.2854 2.953 8.2759 3.02626L7.6084 8.13254C7.5905 8.26923 7.5261 8.39559 7.4261 8.49038L3.6873 12.0317C3.4467 12.2596 3.4364 12.6394 3.6643 12.8799C3.7151 12.9336 3.7754 12.9774 3.8421 13.0091L8.4922 15.2218C8.6167 15.2811 8.717 15.3813 8.7762 15.5058ZM7.9794 17.4329L6.5652 16.0187L2.3225 20.2613L3.7367 21.6755L7.9794 17.4329Z" fill="url(#paint0_linear_4429_15655)"/>
<defs>
<linearGradient id="paint0_linear_4429_15655" x1="21.4941" y1="11.9714" x2="2.3225" y2="11.9714" gradientUnits="userSpaceOnUse">
<stop stop-color="#F15EE5"/>
<stop offset="1" stop-color="#FF7E89"/>
</linearGradient>
</defs>
</svg>
