<?xml version="1.0" encoding="UTF-8"?>
<svg xmlns="http://www.w3.org/2000/svg" width="117" height="38" viewBox="0 0 117 38" fill="none">
  <path d="M46.3047 30.1341V4.29405H51.4872V30.1341H46.3047ZM50.1154 30.1341V25.6865H63.7577V30.1341H50.1154Z" fill="white"></path>
  <path d="M74.1969 30.5016C72.5202 30.5016 71.0086 30.0973 69.6621 29.2886C68.3157 28.48 67.2614 27.3773 66.4993 25.9805C65.7371 24.5838 65.3561 23.0155 65.3561 21.2757C65.3561 19.5114 65.7371 17.9308 66.4993 16.5341C67.2614 15.1373 68.3157 14.0346 69.6621 13.2259C71.0086 12.4173 72.5202 12.013 74.1969 12.013C75.5179 12.013 76.6992 12.2703 77.7408 12.7849C78.7824 13.2995 79.608 14.0223 80.2177 14.9535C80.8529 15.8602 81.1958 16.8894 81.2466 18.0411V24.4368C81.1958 25.613 80.8529 26.6544 80.2177 27.5611C79.608 28.4677 78.7824 29.1906 77.7408 29.7297C76.6992 30.2443 75.5179 30.5016 74.1969 30.5016ZM75.1114 26.0541C76.5087 26.0541 77.6392 25.613 78.5029 24.7308C79.3667 23.8241 79.7986 22.6602 79.7986 21.2389C79.7986 20.3077 79.5953 19.4868 79.1889 18.7762C78.8078 18.0411 78.2616 17.4775 77.5503 17.0854C76.8643 16.6688 76.0514 16.4605 75.1114 16.4605C74.1969 16.4605 73.3839 16.6688 72.6726 17.0854C71.9867 17.4775 71.4405 18.0411 71.034 18.7762C70.6529 19.4868 70.4624 20.3077 70.4624 21.2389C70.4624 22.1946 70.6529 23.04 71.034 23.7751C71.4405 24.4858 71.9867 25.0494 72.6726 25.4659C73.3839 25.858 74.1969 26.0541 75.1114 26.0541ZM79.5318 30.1341V25.3557L80.3321 21.0184L79.5318 16.7546V12.3805H84.4857V30.1341H79.5318Z" fill="white"></path>
  <path d="M96.5995 38C94.6434 38 92.9159 37.6569 91.417 36.9708C89.9181 36.3092 88.7241 35.3658 87.835 34.1405L90.9978 31.0897C91.7092 31.8984 92.4967 32.511 93.3605 32.9276C94.2496 33.3686 95.3166 33.5892 96.5614 33.5892C98.1111 33.5892 99.3305 33.2094 100.22 32.4497C101.134 31.6901 101.592 30.6364 101.592 29.2886V24.8411L102.43 20.9449L101.63 17.0486V12.3805H106.584V29.2151C106.584 30.9795 106.152 32.511 105.288 33.8097C104.45 35.133 103.281 36.1622 101.782 36.8973C100.283 37.6324 98.5557 38 96.5995 38ZM96.3709 29.6562C94.7196 29.6562 93.2334 29.2764 91.9124 28.5168C90.5914 27.7326 89.5498 26.6667 88.7876 25.3189C88.0509 23.9712 87.6825 22.4641 87.6825 20.7978C87.6825 19.1315 88.0509 17.6368 88.7876 16.3135C89.5498 14.9903 90.5914 13.9488 91.9124 13.1892C93.2334 12.405 94.7196 12.013 96.3709 12.013C97.7428 12.013 98.9495 12.2703 99.9911 12.7849C101.058 13.2995 101.896 14.0101 102.506 14.9168C103.116 15.7989 103.446 16.8404 103.497 18.0411V23.6281C103.446 24.8043 103.103 25.858 102.468 26.7892C101.858 27.6959 101.02 28.4065 99.953 28.9211C98.9114 29.4112 97.7174 29.6562 96.3709 29.6562ZM97.3617 25.2822C98.2762 25.2822 99.0638 25.0984 99.7243 24.7308C100.41 24.3387 100.944 23.8119 101.325 23.1503C101.706 22.4641 101.896 21.6923 101.896 20.8346C101.896 19.9524 101.706 19.1805 101.325 18.5189C100.944 17.8573 100.41 17.3427 99.7243 16.9751C99.0638 16.5831 98.2762 16.387 97.3617 16.387C96.4471 16.387 95.6469 16.5831 94.9609 16.9751C94.275 17.3427 93.7415 17.8695 93.3605 18.5557C92.9794 19.2173 92.7889 19.9769 92.7889 20.8346C92.7889 21.6677 92.9794 22.4274 93.3605 23.1135C93.7415 23.7751 94.275 24.302 94.9609 24.6941C95.6469 25.0861 96.4471 25.2822 97.3617 25.2822Z" fill="white"></path>
  <path d="M110.97 30.1341V12.3805H116V30.1341H110.97ZM113.485 9.51351C112.672 9.51351 111.999 9.25622 111.465 8.74162C110.932 8.20252 110.665 7.5409 110.665 6.75676C110.665 5.99712 110.932 5.34775 111.465 4.80865C111.999 4.26955 112.672 4 113.485 4C114.323 4 114.996 4.26955 115.504 4.80865C116.038 5.34775 116.305 5.99712 116.305 6.75676C116.305 7.5409 116.038 8.20252 115.504 8.74162C114.996 9.25622 114.323 9.51351 113.485 9.51351Z" fill="white"></path>
  <g clip-path="url(#clip0_6015_5947)">
    <path d="M33.9394 15.6767C33.4029 6.96568 26.0695 0.0660058 17.0882 0.0117188H16.8895C13.7137 0.0325984 10.7472 0.898059 8.21206 2.4087C5.87138 3.79615 3.9015 5.72543 2.4735 8.02115C1.0795 10.272 0.209312 12.8767 0.0329375 15.6662C0.0116875 16.0087 0 16.3511 0 16.705C0 17.0526 0.017 17.4013 0.0329375 17.7438C0.210375 20.5333 1.07419 23.1317 2.4735 25.3826C3.88981 27.6783 5.85544 29.6034 8.17806 31.0002C10.7238 32.4952 13.6956 33.3711 16.8608 33.392H17.1158C26.1035 33.3325 33.4018 26.4485 33.9618 17.749C33.9777 17.4118 34.0053 17.0589 34.0053 16.7269C34.0053 16.3887 34.0053 16.0368 33.9766 15.7038L33.9437 15.6714L33.9394 15.6767ZM17.0053 21.7725V27.101C17.1381 30.3582 16.1978 30.9011 15.0631 30.9501C15.0131 30.9501 14.9685 30.9553 14.9186 30.9553C8.46706 30.0586 3.36388 25.0339 2.4735 18.6781C2.38531 18.0308 2.33431 17.3721 2.33431 16.6987C2.33431 16.0306 2.38531 15.3718 2.4735 14.7246C3.35856 8.38028 8.45006 3.35455 14.9037 2.44733L15.0641 2.46403C16.1989 2.5225 17.1392 3.06119 17.0064 6.30693V11.6354C16.9894 13.8278 18.2729 15.9157 19.6339 16.7039C18.2729 17.4859 16.9894 19.3139 17.0064 21.7662L17.0053 21.7725Z" fill="url(#paint0_linear_6015_5947)"></path>
  </g>
  <defs>
    <linearGradient id="paint0_linear_6015_5947" x1="0" y1="16.4958" x2="34.0053" y2="16.4958" gradientUnits="userSpaceOnUse">
      <stop stop-color="#F15EE5"></stop>
      <stop offset="1" stop-color="#FF7E89"></stop>
    </linearGradient>
    <clipPath id="clip0_6015_5947">
      <rect width="34" height="33.4074" fill="white"></rect>
    </clipPath>
  </defs>
</svg>
